<svg width="77" height="75" viewBox="0 0 77 75" fill="none" xmlns="http://www.w3.org/2000/svg">
<path d="M57.9793 4.19896L54.0699 7.97103L52.1152 7.11506C48.5968 5.56271 45.1084 4.60518 41.214 4.11191C38.5376 3.77823 33.1547 3.89429 30.5534 4.34404C21.0205 5.98344 12.916 10.742 7.23238 18.0541C3.60867 22.7256 1.18785 28.3257 0.315759 34.1144C-0.105253 36.8129 -0.105253 41.7891 0.315759 44.4876C1.26303 50.755 3.68385 56.181 7.81879 61.3603C9.08182 62.9417 12.1943 65.9449 13.8633 67.1925C19.0658 71.0807 24.9449 73.518 31.3353 74.4175C34.132 74.8237 39.2894 74.8237 42.0861 74.4175C48.5065 73.518 54.6864 70.9066 59.7836 66.9459C66.7454 61.5489 71.3314 53.9903 72.9402 45.242C73.4064 42.7321 73.5267 37.5383 73.1808 34.9558C72.6696 31.1983 71.6772 27.8324 70.0683 24.4376L69.1812 22.5515L73.0906 18.7795C76.9549 15.0364 77 14.9929 77 14.3835C77 13.9193 76.9248 13.7307 76.6542 13.5711C76.4587 13.4405 74.9401 13.1504 73.0906 12.9037C71.3163 12.6426 69.7676 12.4105 69.6473 12.3814C69.512 12.3379 69.7225 12.0333 70.2939 11.4674C71.587 10.1472 71.5569 10.0457 69.2865 7.85497C67.031 5.67877 66.9258 5.64975 65.5575 6.89744C64.9711 7.44874 64.6553 7.65185 64.6102 7.52128C64.5802 7.40522 64.3396 5.9109 64.084 4.19896C63.8133 2.39997 63.5126 0.949174 63.3923 0.760571C63.2119 0.499428 63.0164 0.426888 62.5352 0.426888C61.9037 0.426888 61.8586 0.470412 57.9793 4.19896ZM62.5653 9.42183C62.5653 9.71198 61.8285 10.5099 59.1822 13.0488C56.9869 15.167 55.784 16.2261 55.7389 16.081C55.7088 15.9794 55.4833 14.6447 55.2578 13.1504L54.8518 10.4084L58.2951 7.08604L61.7383 3.76372L62.1443 6.41868C62.3698 7.86947 62.5503 9.21871 62.5653 9.42183ZM40.5374 6.24458C42.5973 6.44769 45.3038 7.0135 47.3788 7.68087C49.3937 8.31922 52.3408 9.53789 52.431 9.77002C52.4911 9.95862 53.694 17.6769 53.694 17.938C53.694 18.025 52.9572 17.6333 52.0551 17.053C49.0629 15.1235 45.6046 13.7307 42.026 13.0343C39.9961 12.6426 35.4853 12.4975 33.2749 12.7441C20.7348 14.1949 10.7508 23.7412 9.11189 35.8698C6.94669 51.9302 19.8326 66.1189 36.5829 66.148C50.4462 66.1625 62.0691 56.5292 64.1441 43.2834C64.4448 41.3539 64.4448 37.4512 64.1441 35.4636C63.5126 31.4159 62.0992 27.8614 59.7836 24.5101C59.1672 23.6251 58.7612 22.9142 58.8514 22.9142C59.122 22.9142 67.1213 24.0749 67.3167 24.1329C67.5573 24.2199 68.8203 27.0635 69.4819 29.0076C70.1285 30.8936 70.7299 33.505 70.9705 35.5071C71.181 37.2046 71.1961 41.4554 70.9855 43.0803C69.091 57.98 57.5282 69.6734 42.2214 72.1688C39.0338 72.6765 34.3726 72.6765 31.1849 72.1688C18.5997 70.1086 8.26987 61.723 4.1199 50.1892C2.81176 46.5622 2.22535 43.1964 2.24038 39.2357C2.25542 28.0646 7.99922 17.7639 17.6825 11.569C24.4337 7.24563 32.2525 5.43214 40.5374 6.24458ZM53.6639 24.336C45.5294 32.1848 38.7631 38.6699 38.6128 38.7424C38.0564 39.0471 37.1543 38.3652 37.1543 37.6688C37.1543 37.5818 43.8754 31.0242 52.0701 23.1028L67.001 8.69643L67.7077 9.3783L68.4294 10.0747L53.6639 24.336ZM70.7901 14.7608L73.5417 15.1525L70.0984 18.4748L66.6551 21.7971L63.8133 21.4054C62.2646 21.1878 60.8813 20.9847 60.776 20.9411C60.6257 20.8976 61.7083 19.7515 63.9186 17.6188C66.5499 15.0654 67.3769 14.3545 67.6776 14.3545C67.8881 14.369 69.2865 14.5431 70.7901 14.7608ZM39.0037 14.8623C42.8078 15.1089 47.2134 16.6033 50.8071 18.8955L52.2054 19.7805L49.7996 22.1018L47.3939 24.4231L46.8225 24.1039C43.3642 22.1163 40.4622 21.3184 36.7032 21.3184C32.7036 21.3184 29.5159 22.2324 26.2531 24.336C23.0053 26.4252 20.389 29.6604 19.0808 33.2149C18.3591 35.2025 18.1787 36.1455 18.1035 38.6554C18.0133 41.3829 18.1937 42.7756 18.9154 44.8938C20.2236 48.7674 22.8248 52.0752 26.2531 54.2804C28.5085 55.7312 30.6587 56.5727 33.3802 57.066C35.0191 57.3706 38.3722 57.3706 40.0262 57.0805C47.7547 55.7022 53.694 49.9716 55.1224 42.5145C55.4232 40.9331 55.4232 37.6833 55.1224 36.102C54.7014 33.9258 53.8143 31.7351 52.461 29.5444L52.1302 28.9931L54.536 26.6718L56.9418 24.3505L57.859 25.6998C60.0844 28.9641 61.4827 32.562 61.9639 36.3051C62.2345 38.3072 62.0842 42.4565 61.6932 44.1684C60.6106 48.84 58.4304 52.9022 55.2728 56.1085C51.1379 60.3158 46.5518 62.6515 40.4622 63.7106C39.7706 63.8267 38.2519 63.8992 36.4776 63.8847C33.9816 63.8847 33.3802 63.8267 31.7112 63.493C24.9449 62.1147 19.2613 58.4442 15.4722 53.0183C10.1494 45.3871 9.72837 35.333 14.4046 27.3537C18.0584 21.1152 24.4187 16.6323 31.651 15.2105C33.2148 14.9058 35.9814 14.6737 37.1543 14.7462C37.5302 14.7608 38.3572 14.8188 39.0037 14.8623ZM39.2894 23.6541C40.778 23.8427 42.5973 24.4376 44.2814 25.2645L45.7549 26.0044L43.274 28.3982L40.793 30.7921L39.8457 30.4584C38.5075 30.0086 35.6807 29.8926 34.2974 30.2408C31.5909 30.9081 29.1851 32.7651 27.9973 35.1009C25.3359 40.3528 27.9672 46.5187 33.6057 48.2451C35.2146 48.7384 37.1392 48.84 38.6579 48.5353C42.2365 47.8099 45.1836 45.0679 46.1008 41.6295C46.4616 40.2948 46.3413 37.5673 45.8752 36.2761L45.5294 35.3621L48.0254 32.9537L50.5063 30.5599L51.3484 32.2138C52.5813 34.6367 52.9572 36.0294 53.0475 38.5393C53.1828 41.673 52.7167 43.8202 51.3484 46.4316C49.0629 50.8421 44.7325 53.9758 39.6653 54.9043C38.1316 55.1799 35.2748 55.1799 33.7411 54.9043C27.0199 53.6711 21.8174 48.6514 20.5393 42.1663C20.2537 40.672 20.2537 37.7559 20.5393 36.3776C21.2761 32.9973 22.9602 30.0231 25.4261 27.8179C29.2603 24.3505 33.9816 22.9287 39.2894 23.6541ZM38.4173 32.3589L38.9887 32.5185L37.2595 34.2014C35.4401 35.9859 35.1545 36.4066 34.9891 37.3642C34.6282 39.3808 36.628 41.3103 38.718 40.9621C39.7104 40.8025 40.1465 40.5269 41.9959 38.7569L43.7551 37.0885L43.9205 37.7269C44.0408 38.1186 44.0709 38.9165 44.0408 39.7725C43.9807 41.0057 43.9055 41.2958 43.4243 42.2679C42.6575 43.8347 41.5147 44.9518 39.8758 45.7353L38.6128 46.3446H36.7032H34.8086L33.5306 45.7353C31.8916 44.9518 30.7639 43.8492 29.967 42.2533C29.4107 41.1362 29.4107 41.1072 29.4107 39.3082C29.4107 37.5092 29.4107 37.4802 29.967 36.3631C30.8992 34.4771 32.6434 33.0118 34.6583 32.4024C35.4251 32.1703 37.6354 32.1413 38.4173 32.3589Z" fill="#60C2F8"/>
</svg>
