<svg width="77" height="75" viewBox="0 0 77 75" fill="none" xmlns="http://www.w3.org/2000/svg">
<path d="M33.2064 0.60038C31.6854 0.98659 30.5646 1.86715 29.8121 3.22661C29.4599 3.85999 29.4599 3.95268 29.4118 12.0013L29.3638 20.158H17.6119C9.62249 20.158 5.58777 20.2198 5.01138 20.328C3.07407 20.7142 1.26485 22.1045 0.432291 23.8348L0 24.7153V44.9527V65.1901L0.496335 66.1943C1.12076 67.4765 2.19348 68.5115 3.57041 69.1604L4.64313 69.6702L24.3364 69.7474C39.0183 69.8092 44.1097 69.871 44.3499 70.01C44.542 70.1027 45.2945 70.3499 46.031 70.5353C47.1678 70.8288 47.7922 70.8906 49.7936 70.8906C52.4033 70.8906 54.0524 70.6125 55.8296 69.8555L56.7102 69.4848L58.6796 71.6939C61.0171 74.3047 61.6736 74.7372 63.2266 74.7218C64.5235 74.7218 65.4201 74.351 66.2046 73.5014C66.9892 72.6362 67.2133 71.972 67.1333 70.7515L67.0692 69.7783L69.5669 69.7165C71.9525 69.6702 72.0966 69.6547 73.0893 69.1913C74.4182 68.5888 75.5709 67.4765 76.1954 66.1943L76.6917 65.1901V44.9527V24.7153L76.2594 23.8348C75.3788 22.0119 73.5536 20.6678 71.4562 20.2971L70.3834 20.1117L70.3354 11.9858L70.2874 3.85999L69.8231 3.04123C69.2467 2.03708 68.5102 1.38825 67.3254 0.863003L66.4448 0.461345L50.1938 0.430448C37.6574 0.414999 33.7828 0.445896 33.2064 0.60038ZM66.0926 3.22661C66.701 3.47378 67.4375 4.2462 67.6136 4.83324C67.6776 5.06497 67.7257 9.31327 67.7257 14.2877C67.7257 24.3291 67.7737 23.8966 66.6529 24.669L66.1246 25.0243L56.422 25.1015C49.3132 25.1633 46.6555 25.2251 46.4953 25.3642C46.3673 25.4568 45.6628 26.3529 44.9103 27.3261C44.1578 28.2994 43.5173 29.1027 43.4693 29.1027C43.4213 29.1027 42.7808 28.2994 42.0283 27.3261C41.2758 26.3529 40.5713 25.4568 40.4433 25.3642C40.2992 25.2406 39.1144 25.1479 36.9209 25.1015C33.7828 25.0243 33.5906 25.0088 33.0943 24.669C31.9736 23.8966 32.0216 24.3291 32.0216 14.2877C32.0216 9.31327 32.0696 5.06497 32.1337 4.83324C32.3098 4.26165 33.0303 3.47378 33.6227 3.22661C34.3432 2.91764 65.34 2.91764 66.0926 3.22661ZM29.3798 23.2941C29.3798 24.6999 30.6126 26.4455 32.1657 27.2334C32.9502 27.6351 33.1103 27.6505 35.9763 27.7278L38.9703 27.805L40.5233 29.8133C42.6207 32.5322 42.7648 32.6712 43.4693 32.6712C44.1738 32.6712 44.3179 32.5322 46.4153 29.8133L47.9683 27.805L57.3667 27.7278L66.765 27.6505L67.5816 27.2334C69.1346 26.4455 70.3674 24.6999 70.3674 23.2941C70.3674 22.707 70.3834 22.707 71.3921 23.0006C72.4328 23.3095 73.0893 23.8348 73.6496 24.808L74.13 25.6422V44.8755C74.13 66.6423 74.226 64.9893 72.8491 66.1634C71.8404 67.013 71.3121 67.1212 67.9498 67.1212L65.0038 67.1057L63.835 65.7926L62.6502 64.4949L63.1145 63.7534C63.771 62.7029 64.3634 61.3589 64.7957 59.9377C65.1159 58.8563 65.1639 58.3774 65.1479 55.9983C65.1479 53.5575 65.0999 53.1713 64.7476 52.0281L64.3314 50.7613L65.1959 49.9426C66.9571 48.2741 67.8057 46.3431 67.8057 44.0258C67.8057 42.311 67.5816 41.3378 66.8451 39.8547C65.7723 37.7074 64.1552 36.2862 61.8177 35.4674L60.6809 35.0657H38.506C17.4358 35.0657 16.283 35.0812 15.3704 35.3438C11.1115 36.6106 8.64583 40.0556 8.93402 44.3193C8.99807 45.0918 9.14216 46.065 9.27025 46.4667C10.2149 49.3401 12.4564 51.3793 15.5465 52.1362C16.6993 52.4297 17.3397 52.4452 25.8254 52.4452H34.8555L34.7114 53.2485C34.6474 53.6965 34.5833 55.1487 34.5993 56.4618C34.6153 58.5937 34.6634 59.0108 35.0316 60.2157C35.7521 62.4866 36.7928 64.2632 38.538 66.2406L39.3385 67.1212H22.5752C10.311 67.1212 5.6358 67.0748 5.1875 66.9358C4.33892 66.6886 3.37828 65.8698 2.92998 64.9893L2.56173 64.2632V44.9527V25.6422L2.94599 24.9007C3.15413 24.499 3.58642 23.9584 3.90663 23.6957C5.0434 22.7997 4.85127 22.7997 17.6599 22.7997L29.3798 22.7843V23.2941ZM61.1132 38.0473C62.1859 38.4644 63.5949 39.6539 64.1713 40.5963C65.5802 42.9444 65.3561 45.8178 63.6109 47.718L63.0665 48.3205L62.33 47.3318C60.4087 44.7364 57.3667 42.7127 53.9404 41.7549C52.8356 41.4459 52.3233 41.3996 49.8736 41.3996C47.424 41.3996 46.9116 41.4459 45.8069 41.7549C42.1564 42.7745 39.0984 44.8909 37.065 47.8416C36.5526 48.5831 36.0883 49.3246 36.0243 49.51L35.9122 49.8344L26.1296 49.7881L16.331 49.7417L15.2903 49.2474C13.9614 48.614 12.8567 47.5481 12.2002 46.2658C11.7199 45.3389 11.6879 45.1536 11.6879 43.7169C11.6879 42.3419 11.7359 42.0793 12.1362 41.2915C13.0168 39.5458 14.6339 38.2636 16.4911 37.831C17.0995 37.6765 22.287 37.6456 38.7461 37.6611L60.2006 37.692L61.1132 38.0473ZM53.6362 44.412C57.3186 45.5398 60.2486 48.1351 61.5775 51.4256C63.5789 56.4 62.4101 61.5134 58.4714 65.0665C54.3086 68.8205 48.1765 69.4384 43.2932 66.565C41.2918 65.4064 39.3545 63.3054 38.3458 61.2353C36.6647 57.744 36.8729 53.4184 38.9222 49.8344C39.8028 48.3205 42.0764 46.204 43.7095 45.3853C46.1431 44.1958 47.3119 43.9486 50.2739 44.0104C52.0351 44.0567 52.7556 44.134 53.6362 44.412ZM62.7303 68.6197C64.2993 70.3808 64.4595 70.6125 64.4114 71.1069C64.3474 71.7866 63.7069 72.3118 63.0985 72.1573C62.8424 72.0955 62.0258 71.3231 60.9211 70.1027C59.9604 69.0213 59.1599 68.0944 59.1759 68.0481C59.1759 67.9554 60.809 66.6577 60.9211 66.6732C60.9691 66.6732 61.7856 67.5537 62.7303 68.6197Z" fill="#D38094"/>
<path d="M39.4986 7.96933C37.7374 8.29374 35.8161 9.80769 35.0156 11.4761C34.4552 12.6502 34.3271 14.7821 34.7434 16.0025C35.3358 17.7636 36.5046 18.9995 38.2978 19.8182C39.1304 20.189 39.4025 20.2354 40.9076 20.2354C42.4926 20.2354 42.6687 20.2045 43.6614 19.7256C45.4066 18.9068 46.5273 17.6091 47.2158 15.6317C47.2959 15.3846 47.6641 15.3691 51.7949 15.3691H56.2779V16.2651C56.2779 17.362 56.6782 17.8409 57.5748 17.8409C58.4394 17.8409 58.8396 17.3465 58.8396 16.2497V15.3691H60.7609H62.6822V16.8831C62.6822 18.2734 62.7143 18.4279 63.0505 18.7369C63.5628 19.2003 64.4434 19.1849 64.8917 18.7214C65.228 18.3815 65.244 18.2116 65.244 15.8789C65.244 13.5616 65.228 13.3917 64.9077 13.1136C64.5875 12.8356 64.1712 12.8201 55.8616 12.7738C47.568 12.7429 47.1518 12.7274 47.1518 12.4494C47.1518 11.8932 46.1751 10.2866 45.4066 9.60686C43.7735 8.12381 41.6921 7.55222 39.4986 7.96933ZM42.4126 10.8118C43.6934 11.3989 44.574 12.7274 44.59 14.056C44.59 16.0025 42.8609 17.6864 40.8755 17.6864C40.091 17.6864 38.7461 17.1302 38.2338 16.5895C37.2731 15.5699 36.9689 13.8243 37.5453 12.6656C37.9135 11.9087 38.1057 11.6924 38.8262 11.1671C39.8669 10.4102 41.2438 10.2711 42.4126 10.8118Z" fill="#D38094"/>
<path d="M5.73174 24.0202C5.28344 24.2056 5.04327 24.6381 5.04327 25.3024C5.04327 25.9976 5.58764 26.4919 6.34015 26.4919C7.8932 26.4919 8.08532 24.1747 6.5643 23.943C6.30813 23.9121 5.92387 23.943 5.73174 24.0202Z" fill="#D38094"/>
<path d="M10.8555 24.0202C10.4072 24.2056 10.167 24.6381 10.167 25.3024C10.167 25.9976 10.7114 26.4919 11.4639 26.4919C13.0169 26.4919 13.209 24.1747 11.688 23.943C11.4318 23.9121 11.0476 23.943 10.8555 24.0202Z" fill="#D38094"/>
<path d="M15.9788 24.0202C15.5305 24.2056 15.2903 24.6381 15.2903 25.3024C15.2903 25.9976 15.8347 26.4919 16.5872 26.4919C18.1403 26.4919 18.3324 24.1747 16.8114 23.943C16.5552 23.9121 16.1709 23.943 15.9788 24.0202Z" fill="#D38094"/>
</svg>
