<svg width="15" height="15" viewBox="0 0 15 15" fill="none" xmlns="http://www.w3.org/2000/svg">
<path d="M5.23206 0.726249C4.07402 1.10354 3.14158 1.65496 2.23921 2.52563C0.780387 3.93321 0.118652 5.50041 0.118652 7.57551C0.118652 9.6506 0.780387 11.2178 2.23921 12.6399C3.83339 14.1636 5.45765 14.7585 7.84892 14.6569C9.68373 14.5699 10.7064 14.2361 12.0449 13.2639C15.8499 10.4632 15.8499 4.68779 12.0449 1.88714C10.6462 0.87136 9.69876 0.566626 7.71356 0.508581C6.42017 0.479559 5.87875 0.523093 5.23206 0.726249ZM9.51829 3.35277C13.3233 5.10861 13.2481 10.1585 9.38294 11.8708C8.60089 12.2046 8.3753 12.2481 7.27742 12.1901C5.41253 12.0885 4.08906 11.2904 3.18669 9.72316C2.79567 9.02662 2.75055 8.82347 2.75055 7.57551C2.75055 6.41462 2.81071 6.09537 3.09646 5.57297C3.63788 4.60072 4.41993 3.84614 5.41253 3.36728C6.19458 3.0045 6.51041 2.93194 7.47293 2.93194C8.42041 2.93194 8.76632 3.0045 9.51829 3.35277Z" fill="#80D3A4"/>
</svg>
